<svg xmlns="http://www.w3.org/2000/svg" xmlns:xlink="http://www.w3.org/1999/xlink" viewBox="0 0 746 226" width="746" height="226"><defs><style>.a{fill:none;}.b{clip-path:url(#a);}.c{fill:#411e75;}.d{fill:#92278f;}.e{clip-path:url(#b);}.f{fill:url(#c);}.g{clip-path:url(#d);}.h{fill:url(#e);}.i{clip-path:url(#f);}.j{fill:url(#g);}.k{clip-path:url(#h);}.l{fill:url(#i);}.m{clip-path:url(#j);}.n{fill:url(#k);}.o{clip-path:url(#l);}.p{fill:url(#m);}.q{clip-path:url(#n);}.r{fill:url(#o);}.s{clip-path:url(#p);}.t{fill:url(#q);}.u{clip-path:url(#r);}.v{fill:url(#s);}.w{clip-path:url(#t);}.x{fill:url(#u);}.y{clip-path:url(#v);}.z{fill:url(#w);}.aa{clip-path:url(#x);}.ab{fill:url(#y);}.ac{clip-path:url(#z);}.ad{fill:url(#aa);}</style><clipPath id="a"><rect class="a" width="746" height="226"/></clipPath><clipPath id="b"><polygon class="a" points="75.8 68.5 114.1 52.8 76.4 36.8 75.8 68.5"/></clipPath><linearGradient id="c" x1="99.95" y1="570.77" x2="103.65" y2="570.77" gradientTransform="matrix(-12.46, 0, 0, 12.46, 1349.24, -7057.94)" gradientUnits="userSpaceOnUse"><stop offset="0" stop-color="#c773af"/><stop offset="0.02" stop-color="#c56dad"/><stop offset="0.18" stop-color="#b84d9e"/><stop offset="0.31" stop-color="#b03895"/><stop offset="0.4" stop-color="#ad3192"/><stop offset="0.49" stop-color="#9d2f8f"/><stop offset="0.83" stop-color="#662784"/><stop offset="1" stop-color="#512480"/></linearGradient><clipPath id="d"><polygon class="a" points="39.6 116.7 60.7 106.7 73.9 71 73.9 71 74.4 39.9 39.6 116.7"/></clipPath><linearGradient id="e" x1="84.96" y1="580.3" x2="88.66" y2="580.3" gradientTransform="matrix(-21.61, 0, 0, 21.61, 1911.53, -12463.15)" xlink:href="#c"/><clipPath id="f"><polygon class="a" points="97.2 0 117.7 52.1 140.8 57.2 174.4 11.3 97.2 0"/></clipPath><linearGradient id="g" x1="56.68" y1="603.3" x2="60.38" y2="603.3" gradientTransform="matrix(0, 40.89, 40.89, 0, -24530.15, -2378.75)" xlink:href="#c"/><clipPath id="h"><polygon class="a" points="97.2 202.9 105.4 222.2 171.5 226 179.3 190.4 97.2 202.9"/></clipPath><linearGradient id="i" x1="78.29" y1="601.38" x2="81.99" y2="601.38" gradientTransform="matrix(0, -57.38, -57.38, 0, 34646.76, 4741.45)" xlink:href="#c"/><clipPath id="j"><polygon class="a" points="7.7 152.9 102.7 220.8 86.4 182.5 37.6 120.1 7.7 152.9"/></clipPath><linearGradient id="k" x1="78.43" y1="599.93" x2="82.14" y2="599.93" gradientTransform="matrix(0, -55.9, -55.9, 0, 33590.32, 4683.88)" xlink:href="#c"/><clipPath id="l"><polygon class="a" points="3.4 47.1 75.6 34.3 115.3 51.2 95.2 0.2 3.4 47.1"/></clipPath><linearGradient id="m" x1="56.45" y1="602.77" x2="60.15" y2="602.77" gradientTransform="matrix(0, 40.68, 40.68, 0, -24463.41, -2291.59)" xlink:href="#c"/><clipPath id="n"><polygon class="a" points="0.1 49.6 0.1 50.6 7 150.8 36.9 118.1 73.9 36.6 0.1 49.6"/></clipPath><linearGradient id="o" x1="78.26" y1="599.38" x2="81.96" y2="599.38" gradientTransform="matrix(0, -57.36, -57.36, 0, 34414.51, 4736.61)" xlink:href="#c"/><clipPath id="p"><polygon class="a" points="190.2 134.1 209.8 134.1 218.6 116.9 190.3 96.6 190.2 134.1"/></clipPath><linearGradient id="q" x1="90.5" y1="572.26" x2="94.2" y2="572.26" gradientTransform="matrix(-12.4, 0, 0, 12.4, 1343.19, -6979.69)" xlink:href="#c"/><clipPath id="r"><polygon class="a" points="181.5 189.6 173.7 224.8 207.3 163 209.1 138.4 181.5 189.6"/></clipPath><linearGradient id="s" x1="78.14" y1="600.2" x2="81.84" y2="600.2" gradientTransform="matrix(0, -57.95, -57.95, 0, 34970.41, 4704.75)" xlink:href="#c"/><clipPath id="t"><polygon class="a" points="189.3 136 143.1 185.1 180 188.3 208.2 136 189.3 136"/></clipPath><linearGradient id="u" x1="53.74" y1="609.43" x2="57.45" y2="609.43" gradientTransform="matrix(25.24, 0, 0, -25.24, -1212.12, 15544.95)" xlink:href="#c"/><clipPath id="v"><polygon class="a" points="142.5 58 190.3 94.2 190.3 94.3 219.5 115.2 223.1 108.2 176 12.5 142.5 58"/></clipPath><linearGradient id="w" x1="56.96" y1="601.29" x2="60.66" y2="601.29" gradientTransform="matrix(0, 42.02, 42.02, 0, -25082.8, -2469.74)" xlink:href="#c"/><clipPath id="x"><polygon class="a" points="39.2 119 86.1 178.9 60.8 108.7 39.2 119"/></clipPath><linearGradient id="y" x1="56.81" y1="595.25" x2="60.51" y2="595.25" gradientTransform="matrix(0, 37.18, 37.18, 0, -22069.18, -1991.01)" xlink:href="#c"/><clipPath id="z"><polygon class="a" points="88.7 183.1 96.4 201.1 172.5 189.5 141.4 186.9 141.4 186.9 88.7 183.1"/></clipPath><linearGradient id="aa" x1="57.35" y1="595.6" x2="61.05" y2="595.6" gradientTransform="matrix(0, 39.1, 39.1, 0, -23160.22, -2162.27)" xlink:href="#c"/></defs><title>logo</title><g class="b"><path class="c" d="M286.7,91.4H273.5V115H256.1V36.1h32.2c18.8,0,30.2,11.2,30.2,27.3v0.2c0,18.3-14.2,27.7-31.9,27.7M301,63.7c0-7.8-5.4-12-14.1-12H273.5V75.9h13.8c8.7,0,13.8-5.2,13.8-12V63.7Z"/><path class="c" d="M379.3,90.8H337.2c1.7,7.8,7.1,11.8,14.8,11.8,5.7,0,9.9-1.8,14.7-6.2l9.8,8.7c-5.6,7-13.8,11.3-24.7,11.3-18.2,0-31.6-12.7-31.6-31.2V84.9c0-17.3,12.3-31.5,29.9-31.5,20.2,0,29.4,15.7,29.4,32.8v0.2c0,1.7-.1,2.7-0.2,4.3M350.1,67.2c-7.1,0-11.7,5.1-13.1,12.9h25.8c-1-7.7-5.5-12.9-12.7-12.9"/><path class="c" d="M405.9,116c-10.5,0-17.6-4.2-17.6-18.2V69.3h-7.2V54.6h7.2V39.1h17.1V54.6h14.2V69.3H405.4V95.1c0,3.9,1.7,5.9,5.5,5.9a17.4,17.4,0,0,0,8.5-2.1v13.8a25.2,25.2,0,0,1-13.5,3.5"/><path class="c" d="M482.1,90.8H440c1.7,7.8,7.1,11.8,14.8,11.8,5.7,0,9.9-1.8,14.7-6.2l9.8,8.7c-5.6,7-13.8,11.3-24.7,11.3-18.2,0-31.6-12.7-31.6-31.2V84.9c0-17.3,12.3-31.5,29.9-31.5,20.2,0,29.4,15.7,29.4,32.8v0.2c0,1.7-.1,2.7-0.2,4.3M452.9,67.2c-7.1,0-11.7,5.1-13.1,12.9h25.8c-1-7.7-5.5-12.9-12.7-12.9"/><path class="c" d="M523.8,71.4c-11.4,0-18.4,6.9-18.4,21.3V115H488.3V54.6h17.1V66.8c3.5-8.3,9.1-13.8,19.3-13.3V71.4h-0.9Z"/><polygon class="c" points="605.8 115 605.8 63.5 583.6 97.2 583.1 97.2 561.1 63.8 561.1 115 544.1 115 544.1 36.1 562.8 36.1 583.6 69.5 604.3 36.1 623 36.1 623 115 605.8 115"/><path class="c" d="M667.4,115v-6.5c-4.2,4.6-9.9,7.7-18.3,7.7-11.4,0-20.7-6.5-20.7-18.5V97.4c0-13.2,10-19.3,24.4-19.3a42.9,42.9,0,0,1,14.8,2.5v-1c0-7.1-4.4-11.1-13-11.1a44.5,44.5,0,0,0-16.7,3.3l-4.3-13.1a53.4,53.4,0,0,1,23.4-4.8c18.7,0,27,9.7,27,26V115H667.4Zm0.3-24.4a26.6,26.6,0,0,0-10.9-2.3c-7.3,0-11.8,2.9-11.8,8.3V97c0,4.6,3.8,7.3,9.4,7.3,8,0,13.4-4.4,13.4-10.6v-3Z"/><path class="c" d="M721.3,116.4c-18.2,0-31.5-14-31.5-31.2V84.9c0-17.3,13.2-31.5,31.7-31.5,11.4,0,18.5,3.8,24.1,10.1L735.2,74.9c-3.8-4.1-7.7-6.7-13.8-6.7-8.6,0-14.7,7.6-14.7,16.5v0.2c0,9.3,6,16.7,15.3,16.7,5.7,0,9.7-2.5,13.9-6.4l10,10.1c-5.9,6.4-12.6,11.1-24.7,11.1"/><path class="c" d="M264.8,161.6h-4.6V169h-4.1V145.9h9.1c5.4,0,8.8,3,8.8,7.8s-4.2,7.9-9.2,7.9m0.1-12h-4.7V158h4.7c3.1,0,5-1.7,5-4.2s-2-4.2-5-4.2"/><path class="c" d="M284.6,166.2a6.3,6.3,0,0,0,4.7-2.1l2.3,2.1a9.1,9.1,0,0,1-16.1-5.8c0-5,3.5-9.1,8.5-9.1s8.4,4.4,8.4,9.4c0,0.4,0,.7-0.1,1.1H279.6a4.9,4.9,0,0,0,5,4.4m3.9-7.1c-0.3-2.6-1.8-4.6-4.4-4.6s-4.2,1.9-4.5,4.6h8.9Z"/><path class="c" d="M299.9,163.6a1.9,1.9,0,0,0,2.2,2.2,5.3,5.3,0,0,0,2.5-.6v3.3a7,7,0,0,1-3.6.9c-2.9,0-5-1.3-5-5.1v-9.2h-2.2v-3.4h2.2v-4.8h4v4.8h4.7v3.4h-4.7v8.5Z"/><path class="c" d="M315.1,166.2a6.3,6.3,0,0,0,4.7-2.1l2.3,2.1a8.8,8.8,0,0,1-7.1,3.3,8.7,8.7,0,0,1-8.9-9.1c0-5,3.5-9.1,8.5-9.1s8.3,4.4,8.3,9.4c0,0.4,0,.7-0.1,1.1H310a4.9,4.9,0,0,0,5,4.4m3.9-7.1c-0.3-2.6-1.8-4.6-4.4-4.6s-4.2,1.9-4.5,4.6H319Z"/><path class="c" d="M329.7,169h-4V151.6h4v3.9c1.1-2.6,3.1-4.4,6.2-4.3v4.2h-0.2c-3.5,0-5.9,2.3-5.9,6.9V169Z"/><polygon class="c" points="359 163.4 358.9 163.4 351.7 152.5 351.7 169 347.7 169 347.7 145.9 352 145.9 359 156.9 366.1 145.9 370.4 145.9 370.4 169 366.3 169 366.3 152.5 359 163.4"/><path class="c" d="M384.6,169v-2.1a7.1,7.1,0,0,1-5.6,2.5c-3.3,0-6.2-1.9-6.2-5.4h0c0-3.8,3-5.6,7.1-5.6a14.9,14.9,0,0,1,4.8.7v-0.4c0-2.4-1.5-3.7-4.3-3.7a12.1,12.1,0,0,0-5,1.1l-1.1-3.2a15,15,0,0,1,6.6-1.4c5.1,0,7.6,2.7,7.6,7.4V169h-4Zm0.1-7.4a11.2,11.2,0,0,0-4-.7c-2.5,0-4,1-4,2.8h0c0,1.7,1.5,2.6,3.4,2.6s4.6-1.5,4.6-3.7v-1.1Z"/><path class="c" d="M400.1,169.4a9.1,9.1,0,0,1,0-18.2,8.7,8.7,0,0,1,7,3l-2.5,2.7a5.9,5.9,0,0,0-4.5-2.2c-2.9,0-5,2.5-5,5.6s2.1,5.6,5.2,5.6a6.1,6.1,0,0,0,4.5-2.2l2.4,2.4a8.8,8.8,0,0,1-7.1,3.3"/><path class="c" d="M421.1,169.4a11.9,11.9,0,0,1,.2-23.9,12,12,0,0,1,9,3.6l-2.6,3a9.2,9.2,0,0,0-6.5-2.9c-4.4,0-7.6,3.6-7.6,8.2s3.2,8.2,7.6,8.2c2.8,0,4.7-1.2,6.6-3l2.6,2.6a11.9,11.9,0,0,1-9.4,4.1"/><path class="c" d="M444.1,169v-2.1a7.1,7.1,0,0,1-5.6,2.5c-3.3,0-6.2-1.9-6.2-5.4h0c0-3.8,3-5.6,7.1-5.6a14.9,14.9,0,0,1,4.8.7v-0.4c0-2.4-1.5-3.7-4.3-3.7a12.2,12.2,0,0,0-5,1.1l-1.1-3.2a14.9,14.9,0,0,1,6.6-1.4c5.1,0,7.7,2.7,7.7,7.4V169h-4Zm0.1-7.4a11.2,11.2,0,0,0-4-.7c-2.5,0-4,1-4,2.8h0c0,1.7,1.5,2.6,3.4,2.6s4.6-1.5,4.6-3.7v-1.1Z"/><rect class="c" x="451.3" y="145" width="4" height="24.08"/><rect class="c" x="458.5" y="145" width="4" height="24.08"/><path class="c" d="M477.3,151.6h4V169h-4v-2.7a6.3,6.3,0,0,1-5.4,3.1c-3.9,0-6.2-2.6-6.2-6.7V151.6h4v9.9c0,2.7,1.3,4.3,3.7,4.3s3.9-1.6,3.9-4.3v-9.8Z"/><path class="c" d="M505,151.3c3.8,0,6.1,2.4,6.1,6.7V169h-4v-9.9c0-2.8-1.3-4.3-3.5-4.3s-3.7,1.5-3.7,4.3V169h-4v-9.9c0-2.7-1.3-4.2-3.5-4.2s-3.7,1.7-3.7,4.4V169h-4V151.6h4v2.6a6.3,6.3,0,0,1,5.3-3,5.5,5.5,0,0,1,5.2,3.1,7.1,7.1,0,0,1,5.9-3.1"/><path class="c" d="M535.6,169.4a11.9,11.9,0,0,1,.2-23.9,12,12,0,0,1,9,3.6l-2.6,3a9.2,9.2,0,0,0-6.5-2.9c-4.4,0-7.6,3.6-7.6,8.2s3.2,8.2,7.6,8.2c2.9,0,4.7-1.2,6.6-3l2.6,2.6a11.9,11.9,0,0,1-9.4,4.1"/><path class="c" d="M558.8,169v-2.1a7.1,7.1,0,0,1-5.6,2.5c-3.3,0-6.2-1.9-6.2-5.4h0c0-3.8,3-5.6,7.1-5.6a14.8,14.8,0,0,1,4.8.7v-0.4c0-2.4-1.5-3.7-4.3-3.7a12.1,12.1,0,0,0-5,1.1l-1.1-3.2a14.9,14.9,0,0,1,6.6-1.4c5.1,0,7.7,2.7,7.7,7.4V169h-4Zm0.1-7.4a11.2,11.2,0,0,0-4-.7c-2.5,0-4,1-4,2.8h0c0,1.7,1.5,2.6,3.4,2.6s4.6-1.5,4.6-3.7v-1.1Z"/><path class="c" d="M570.1,169h-4V151.6h4v2.7a6.3,6.3,0,0,1,5.4-3.1c3.9,0,6.2,2.6,6.2,6.7V169h-4v-9.9c0-2.7-1.4-4.3-3.7-4.3s-3.9,1.6-3.9,4.3V169Z"/><path class="c" d="M593.3,169.4a9.1,9.1,0,0,1,0-18.2,8.7,8.7,0,0,1,7,3l-2.5,2.7a5.8,5.8,0,0,0-4.5-2.2c-2.9,0-5,2.5-5,5.6s2.1,5.6,5.2,5.6a6.1,6.1,0,0,0,4.5-2.2l2.4,2.4a8.8,8.8,0,0,1-7.1,3.3"/><path class="c" d="M610.8,166.2a6.3,6.3,0,0,0,4.7-2.1l2.3,2.1a8.8,8.8,0,0,1-7.1,3.3,8.7,8.7,0,0,1-8.9-9.1c0-5,3.5-9.1,8.5-9.1s8.3,4.4,8.3,9.4c0,0.4,0,.7-0.1,1.1H605.7a4.9,4.9,0,0,0,5,4.4m3.9-7.1c-0.3-2.6-1.8-4.6-4.4-4.6s-4.2,1.9-4.5,4.6h8.9Z"/><path class="c" d="M625.7,169h-4V151.6h4v3.9c1.1-2.6,3.1-4.4,6.2-4.3v4.2h-0.2c-3.5,0-5.9,2.3-5.9,6.9V169Z"/><path class="c" d="M655,169.4a11.9,11.9,0,0,1,.2-23.9,12,12,0,0,1,9,3.6l-2.6,3a9.1,9.1,0,0,0-6.5-2.9c-4.4,0-7.6,3.6-7.6,8.2s3.2,8.2,7.6,8.2c2.8,0,4.7-1.2,6.6-3l2.6,2.6a11.9,11.9,0,0,1-9.4,4.1"/><path class="c" d="M675.2,166.2a6.3,6.3,0,0,0,4.7-2.1l2.3,2.1a8.8,8.8,0,0,1-7.1,3.3,8.7,8.7,0,0,1-8.9-9.1c0-5,3.5-9.1,8.5-9.1s8.4,4.4,8.4,9.4c0,0.4,0,.7-0.1,1.1H670.1a4.9,4.9,0,0,0,5,4.4m3.9-7.1c-0.3-2.6-1.8-4.6-4.4-4.6s-4.2,1.9-4.5,4.6H679Z"/><path class="c" d="M689.9,169h-4V151.6h4v2.7a6.3,6.3,0,0,1,5.4-3.1c3.9,0,6.2,2.6,6.2,6.7V169h-4v-9.9c0-2.7-1.3-4.3-3.7-4.3s-3.9,1.6-3.9,4.3V169Z"/><path class="c" d="M710,163.6a1.9,1.9,0,0,0,2.1,2.2,5.3,5.3,0,0,0,2.5-.6v3.3a7,7,0,0,1-3.6.9c-2.9,0-5-1.3-5-5.1v-9.2h-2.2v-3.4H706v-4.8h4v4.8h4.7v3.4H710v8.5Z"/><path class="c" d="M721.6,169h-4V151.6h4v3.9c1.1-2.6,3.1-4.4,6.2-4.3v4.2h-0.2c-3.5,0-5.9,2.3-5.9,6.9V169Z"/><path class="c" d="M738,166.2a6.3,6.3,0,0,0,4.7-2.1l2.3,2.1a8.8,8.8,0,0,1-7.1,3.3,8.7,8.7,0,0,1-8.9-9.1c0-5,3.5-9.1,8.5-9.1s8.4,4.4,8.4,9.4c0,0.4,0,.7-0.1,1.1H733a4.9,4.9,0,0,0,5,4.4m3.9-7.1c-0.3-2.6-1.8-4.6-4.4-4.6s-4.2,1.9-4.5,4.6h8.9Z"/><polygon class="d" points="272.1 186.8 276.5 186.8 266.9 210.1 263.3 210.1 253.7 186.8 258.2 186.8 265.2 204.6 272.1 186.8"/><path class="d" d="M278.8,186h4.3v3.8h-4.3V186Zm0.2,6.5h4v17.4h-4V192.5Z"/><path class="d" d="M294.8,210.3a9.1,9.1,0,0,1,0-18.2,8.7,8.7,0,0,1,7,3l-2.5,2.7a5.8,5.8,0,0,0-4.5-2.2c-2.9,0-5,2.5-5,5.6s2.1,5.6,5.2,5.6a6.1,6.1,0,0,0,4.5-2.2l2.4,2.4a8.8,8.8,0,0,1-7.1,3.3"/><path class="d" d="M310.1,204.5a1.9,1.9,0,0,0,2.1,2.2,5.3,5.3,0,0,0,2.5-.6v3.3a6.9,6.9,0,0,1-3.6.9c-2.9,0-5-1.3-5-5.1v-9.2h-2.2v-3.4h2.2v-4.8h4v4.8h4.7v3.4h-4.7v8.6Z"/><path class="d" d="M325.5,210.3a9,9,0,0,1-9.2-9,9.3,9.3,0,1,1,9.2,9m0-14.7c-3.2,0-5.2,2.5-5.2,5.6a5.4,5.4,0,0,0,5.3,5.6,5.2,5.2,0,0,0,5.3-5.6,5.4,5.4,0,0,0-5.4-5.6"/><path class="d" d="M341.7,209.9h-4V192.5h4v3.9c1.1-2.6,3.1-4.4,6.2-4.3v4.2h-0.2c-3.5,0-5.9,2.3-5.9,6.9v6.6Z"/><path class="d" d="M350.2,186h4.3v3.8h-4.3V186Zm0.2,6.5h4v17.4h-4V192.5Z"/><path class="d" d="M368.9,209.9v-2.1a7,7,0,0,1-5.6,2.5c-3.3,0-6.2-1.9-6.2-5.4h0c0-3.8,3-5.6,7.1-5.6a14.7,14.7,0,0,1,4.8.7v-0.4c0-2.4-1.5-3.7-4.3-3.7a12.2,12.2,0,0,0-5,1.1l-1.1-3.2a14.9,14.9,0,0,1,6.6-1.5c5.1,0,7.7,2.7,7.7,7.4v10.3h-4Zm0.1-7.4a11.4,11.4,0,0,0-4-.7c-2.5,0-4,1-4,2.8h0c0,1.6,1.5,2.6,3.4,2.6s4.6-1.5,4.6-3.7v-1.1Z"/><path class="d" d="M408.1,209.9h-4.3l-2.3-5.6H390.6l-2.4,5.6H384l10.2-23.3H398ZM396,191.5l-4,9.2h8Z"/><path class="d" d="M421,192.5h4v17.4h-4v-2.7a6.3,6.3,0,0,1-5.4,3.1c-3.9,0-6.2-2.6-6.2-6.7V192.5h4v9.9c0,2.7,1.4,4.3,3.7,4.3s3.9-1.6,3.9-4.3v-9.8Z"/><path class="d" d="M434.8,210.3a12.2,12.2,0,0,1-7.4-2.6l1.8-2.7a9.8,9.8,0,0,0,5.7,2.1c1.7,0,2.7-.7,2.7-1.9h0c0-1.4-1.9-1.8-3.9-2.4s-5.4-1.8-5.4-5.1h0c0-3.3,2.7-5.3,6.2-5.3a12.1,12.1,0,0,1,6.4,2l-1.6,2.8a10.1,10.1,0,0,0-4.9-1.7c-1.6,0-2.4.7-2.4,1.7h0c0,1.3,1.9,1.8,3.9,2.4s5.4,1.9,5.4,5.1h0c0,3.7-2.8,5.5-6.5,5.5"/><path class="d" d="M449.1,204.5a1.9,1.9,0,0,0,2.2,2.2,5.4,5.4,0,0,0,2.5-.6v3.3a7,7,0,0,1-3.6.9c-2.9,0-5-1.3-5-5.1v-9.2h-2.2v-3.4h2.2v-4.8h4v4.8h4.7v3.4h-4.7v8.6Z"/><path class="d" d="M460.6,209.9h-4V192.5h4v3.9c1.1-2.6,3.1-4.4,6.2-4.3v4.2h-0.2c-3.5,0-5.9,2.3-5.9,6.9v6.6Z"/><path class="d" d="M479.5,209.9v-2.1a7,7,0,0,1-5.6,2.5c-3.3,0-6.2-1.9-6.2-5.4h0c0-3.8,3-5.6,7.1-5.6a14.8,14.8,0,0,1,4.8.7v-0.4c0-2.4-1.5-3.7-4.3-3.7a12.2,12.2,0,0,0-5,1.1l-1.1-3.2a15,15,0,0,1,6.6-1.5c5.1,0,7.7,2.7,7.7,7.4v10.3h-4Zm0.1-7.4a11.4,11.4,0,0,0-4-.7c-2.5,0-4,1-4,2.8h0c0,1.6,1.5,2.6,3.4,2.6s4.6-1.5,4.6-3.7v-1.1Z"/><rect class="d" x="487.3" y="185.8" width="4" height="24.08"/><path class="d" d="M494.9,186h4.3v3.8h-4.3V186Zm0.2,6.5h4v17.4h-4V192.5Z"/><path class="d" d="M513.7,209.9v-2.1a7.1,7.1,0,0,1-5.6,2.5c-3.3,0-6.2-1.9-6.2-5.4h0c0-3.8,3-5.6,7.1-5.6a14.7,14.7,0,0,1,4.8.7v-0.4c0-2.4-1.5-3.7-4.3-3.7a12.2,12.2,0,0,0-5,1.1l-1.1-3.2a14.9,14.9,0,0,1,6.6-1.5c5.1,0,7.6,2.7,7.6,7.4v10.3h-4Zm0.1-7.4a11.4,11.4,0,0,0-4-.7c-2.5,0-4,1-4,2.8h0c0,1.6,1.5,2.6,3.4,2.6s4.6-1.5,4.6-3.7v-1.1Z"/></g><g class="e"><rect class="f" x="70.7" y="29.8" width="48.5" height="45.58" transform="translate(-13.5 48.5) rotate(-26.8)"/></g><g class="g"><rect class="h" x="19.6" y="37.4" width="74.8" height="81.86" transform="translate(-36.2 51.9) rotate(-38.1)"/></g><g class="i"><rect class="j" x="100.4" y="-14.7" width="70.8" height="86.63" transform="translate(82.1 156.6) rotate(-79.1)"/></g><g class="k"><rect class="l" x="114.1" y="164.8" width="48.4" height="86.83" transform="matrix(0.16, -0.99, 0.99, 0.16, -89.59, 310.95)"/></g><g class="m"><rect class="n" x="2.8" y="120.8" width="104.8" height="99.42" transform="translate(-117.6 218) rotate(-87.5)"/></g><g class="o"><rect class="p" x="22.5" y="-34.4" width="73.6" height="120.22" transform="translate(21.6 78.2) rotate(-77.8)"/></g><g class="q"><rect class="r" x="-23.1" y="52.1" width="120" height="83.16" transform="translate(-59.5 122.6) rotate(-85.2)"/></g><g class="s"><rect class="t" x="181.7" y="91.8" width="45.4" height="47.06" transform="translate(-27.8 149.2) rotate(-37.7)"/></g><g class="u"><rect class="v" x="147.1" y="161" width="88.6" height="41.17" transform="translate(-2.8 360.3) rotate(-86.1)"/></g><g class="w"><rect class="x" x="137" y="127.8" width="77.4" height="68.66" transform="translate(-38.9 56.8) rotate(-16.6)"/></g><g class="y"><rect class="z" x="121.4" y="9.3" width="122.9" height="108.94" transform="translate(64.5 217.1) rotate(-71.6)"/></g><g class="aa"><rect class="ab" x="20.4" y="104.7" width="84.5" height="78.31" transform="translate(-91.5 114.6) rotate(-55.8)"/></g><g class="ac"><rect class="ad" x="99.8" y="152.3" width="61.7" height="79.49" transform="translate(-101.7 193.1) rotate(-56)"/></g></svg>